<?xml version="1.0" encoding="UTF-8"?>
<!-- Generator: Adobe Illustrator 18.0.0, SVG Export Plug-In . SVG Version: 6.00 Build 0)  -->
<!DOCTYPE svg PUBLIC "-//W3C//DTD SVG 1.1//EN" "http://www.w3.org/Graphics/SVG/1.1/DTD/svg11.dtd">
<svg xmlns="http://www.w3.org/2000/svg" xmlns:xlink="http://www.w3.org/1999/xlink" xmlns:dc="http://purl.org/dc/elements/1.1/" xmlns:cc="http://creativecommons.org/ns#" xmlns:rdf="http://www.w3.org/1999/02/22-rdf-syntax-ns#" version="1.1" id="DESIGNS" x="0px" y="0px" width="32px" height="32px" viewBox="0 0 32 32" enable-background="new 0 0 32 32" xml:space="preserve">
<path fill="#999999" d="M24.535,6H7.465l-4.717,7.075L16,28.536l13.252-15.461L24.535,6z M13.868,12L16,8.803L18.132,12H13.868z   M18.674,14L16,23.36L13.326,14H18.674z M17.868,8h4.263L20,11.197L17.868,8z M12,11.197L9.868,8h4.263L12,11.197z M10.132,12H5.868  L8,8.803L10.132,12z M11.245,14l2.536,8.875L6.174,14H11.245z M20.755,14h5.072l-7.608,8.875L20.755,14z M21.868,12L24,8.803  L26.132,12H21.868z"/>
<metadata><work rdf:about=""><format>image/svg+xml</format><type rdf:resource="http://purl.org/dc/dcmitype/StillImage"/><license rdf:resource="http://creativecommons.org/licenses/by/4.0/"/><attributionname>Shannon E Thomas</attributionname><attributionurl>http://www.toicon.com/icons/lines-and-angles_sparkle</attributionurl></work></metadata></svg>
