<?xml version="1.0" encoding="UTF-8"?>
<!-- Generator: Adobe Illustrator 18.0.0, SVG Export Plug-In . SVG Version: 6.00 Build 0)  -->
<!DOCTYPE svg PUBLIC "-//W3C//DTD SVG 1.1//EN" "http://www.w3.org/Graphics/SVG/1.1/DTD/svg11.dtd">
<svg xmlns="http://www.w3.org/2000/svg" xmlns:xlink="http://www.w3.org/1999/xlink" xmlns:dc="http://purl.org/dc/elements/1.1/" xmlns:cc="http://creativecommons.org/ns#" xmlns:rdf="http://www.w3.org/1999/02/22-rdf-syntax-ns#" version="1.1" x="0px" y="0px" width="32px" height="32px" viewBox="0 0 32 32" enable-background="new 0 0 32 32" xml:space="preserve">
<title property="dc:title">to die</title><desc property="dc:description">An icon for "die" from the Lines and Angles series on to [icon]. Downloaded from http://www.toicon.com/icons/lines-and-angles_die by 90.230.228.223 on 2015-04-16. Licensed CC-BY, see http://toicon.com/license/ for details.</desc><g id="LABELS">
</g>
<g id="DESIGNS">
	<path fill="#0B1719" d="M16,4C9.935,4,5,8.935,5,15c0,3.36,1.494,6.461,4.113,8.563L10.219,28h11.562l1.105-4.437   C25.506,21.461,27,18.36,27,15C27,8.935,22.065,4,16,4z M21.398,22.188L21.115,22.4L20.219,26H19v-3h-2v3h-2v-3h-2v3h-1.219   l-0.896-3.6l-0.283-0.213C8.312,20.466,7,17.846,7,15c0-4.963,4.037-9,9-9s9,4.037,9,9C25,17.846,23.687,20.466,21.398,22.188z    M15,15.5c0,1.933-1.343,3.5-3,3.5s-3-1.567-3-3.5s1.343-3.5,3-3.5S15,13.567,15,15.5z M23,15.5c0,1.933-1.343,3.5-3,3.5   s-3-1.567-3-3.5s1.343-3.5,3-3.5S23,13.567,23,15.5z"/>
</g>
<metadata><work rdf:about=""><format>image/svg+xml</format><type rdf:resource="http://purl.org/dc/dcmitype/StillImage"/><license rdf:resource="http://creativecommons.org/licenses/by/4.0/"/><attributionname>Shannon E Thomas</attributionname><attributionurl>http://www.toicon.com/icons/lines-and-angles_die</attributionurl></work></metadata></svg>
