<?xml version="1.0" encoding="UTF-8"?>
<!-- Generator: Adobe Illustrator 18.0.0, SVG Export Plug-In . SVG Version: 6.00 Build 0)  -->
<!DOCTYPE svg PUBLIC "-//W3C//DTD SVG 1.1//EN" "http://www.w3.org/Graphics/SVG/1.1/DTD/svg11.dtd">
<svg xmlns="http://www.w3.org/2000/svg" xmlns:xlink="http://www.w3.org/1999/xlink" xmlns:dc="http://purl.org/dc/elements/1.1/" xmlns:cc="http://creativecommons.org/ns#" xmlns:rdf="http://www.w3.org/1999/02/22-rdf-syntax-ns#" version="1.1" x="0px" y="0px" width="32px" height="32px" viewBox="0 0 32 32" enable-background="new 0 0 32 32" xml:space="preserve">
<title property="dc:title">to cease</title><desc property="dc:description">An icon for "cease" from the Lines and Angles series on to [icon]. Downloaded from http://www.toicon.com/icons/lines-and-angles_cease by 90.230.228.223 on 2015-04-16. Licensed CC-BY, see http://toicon.com/license/ for details.</desc><g id="LABELS">
</g>
<g id="DESIGNS">
	<path fill="#ffffff" d="M7,10h2v2H7V10z M28,6v22H11v-2l2.293-2.293c0.63-0.63,0.184-1.707-0.707-1.707H7c-1.105,0-2-0.895-2-2v-4   H4V9c0-1.105,0.895-2,2-2h8V6c0-1.105,0.895-2,2-2h10C27.105,4,28,4.895,28,6z M26,6H16v3H6v5h17v2h-4v2h-2v-2h-2v2h-2v-2h-2v2H9   v-2H7v4h5.586c1.218,0,2.306,0.727,2.772,1.852s0.211,2.408-0.65,3.269L13.828,26H26V6z M24,8h-2v2h2V8z M20,8h-2v2h2V8z"/>
</g>
<metadata><work rdf:about=""><format>image/svg+xml</format><type rdf:resource="http://purl.org/dc/dcmitype/StillImage"/><license rdf:resource="http://creativecommons.org/licenses/by/4.0/"/><attributionname>Shannon E Thomas</attributionname><attributionurl>http://www.toicon.com/icons/lines-and-angles_cease</attributionurl></work></metadata></svg>
