<?xml version="1.0" encoding="UTF-8"?>
<!-- Generator: Adobe Illustrator 18.0.0, SVG Export Plug-In . SVG Version: 6.00 Build 0)  -->
<!DOCTYPE svg PUBLIC "-//W3C//DTD SVG 1.1//EN" "http://www.w3.org/Graphics/SVG/1.1/DTD/svg11.dtd">
<svg xmlns="http://www.w3.org/2000/svg" xmlns:xlink="http://www.w3.org/1999/xlink" xmlns:dc="http://purl.org/dc/elements/1.1/" xmlns:cc="http://creativecommons.org/ns#" xmlns:rdf="http://www.w3.org/1999/02/22-rdf-syntax-ns#" version="1.1" id="DESIGNS" x="0px" y="0px" width="32px" height="32px" viewBox="0 0 32 32" enable-background="new 0 0 32 32" xml:space="preserve">
<title property="dc:title">to disguise</title><desc property="dc:description">An icon for "disguise" from the Lines and Angles series on to [icon]. Downloaded from http://www.toicon.com/icons/lines-and-angles_disguise by 46.194.234.242 on 2015-04-16. Licensed CC-BY, see http://toicon.com/license/ for details.</desc><path fill="#000000" d="M23.007,14C26.139,14,28,12.505,28,10V6H4v4c0,2.505,1.87,4,5.002,4c0.943,0,1.756-0.151,2.454-0.409  l-0.862,3.734c-0.19,0.822-0.064,1.663,0.406,2.353V20H8c-0.552,0-1-0.448-1-1H5v3c0,2.209,1.791,4,4,4h6c0.552,0,1-0.448,1-1  c0,0.552,0.448,1,1,1h6c2.209,0,4-1.791,4-4v-3h-2c0,0.552-0.448,1-1,1h-3v-2.004C21,16.344,19.66,15,18.005,15v2  c0.551,0,1,0.447,1,1c0,0.551-0.449,1-1,1h-4.487c-0.307,0-0.592-0.138-0.783-0.377s-0.261-0.549-0.191-0.848L14.799,8h3.206v2  C18.005,12.505,19.875,14,23.007,14z M20,8h6v2c0,0.495,0,2-3,2s-3-1.505-3-2V8z M9,12c-3,0-3-1.505-3-2V8h6v2C12,10.495,12,12,9,12  z M13,21h6c0,0.552,0.448,1,1,1h5c0,1.105-0.895,2-2,2h-5c-0.552,0-1-0.448-1-1h-2c0,0.552-0.448,1-1,1H9c-1.105,0-2-0.895-2-2h5  C12.552,22,13,21.552,13,21z"/>
<metadata><work rdf:about=""><format>image/svg+xml</format><type rdf:resource="http://purl.org/dc/dcmitype/StillImage"/><license rdf:resource="http://creativecommons.org/licenses/by/4.0/"/><attributionname>Shannon E Thomas</attributionname><attributionurl>http://www.toicon.com/icons/lines-and-angles_disguise</attributionurl></work></metadata></svg>
