<?xml version="1.0" encoding="UTF-8"?>
<!-- Generator: Adobe Illustrator 18.0.0, SVG Export Plug-In . SVG Version: 6.00 Build 0)  -->
<!DOCTYPE svg PUBLIC "-//W3C//DTD SVG 1.1//EN" "http://www.w3.org/Graphics/SVG/1.1/DTD/svg11.dtd">
<svg xmlns="http://www.w3.org/2000/svg" xmlns:xlink="http://www.w3.org/1999/xlink" xmlns:dc="http://purl.org/dc/elements/1.1/" xmlns:cc="http://creativecommons.org/ns#" xmlns:rdf="http://www.w3.org/1999/02/22-rdf-syntax-ns#" version="1.1" id="DESIGNS" x="0px" y="0px" width="32px" height="32px" viewBox="0 0 32 32" enable-background="new 0 0 32 32" xml:space="preserve">
<title property="dc:title">to launch</title><desc property="dc:description">An icon for "launch" from the Lines and Angles series on to [icon]. Downloaded from http://www.toicon.com/icons/lines-and-angles_launch by 90.230.228.223 on 2015-04-16. Licensed CC-BY, see http://toicon.com/license/ for details.</desc><g>
	<path fill="#231F20" d="M26.75,5.25c-4.081-2.077-9.546-1.767-13.471,2.158c-0.983,0.983-1.773,1.914-2.424,2.79l-0.028-0.028   c-1.56-1.56-4.097-1.56-5.657,0s-1.56,4.097,0,5.657l0.51,0.51l2.671-1.335c-0.374,1.324-0.356,2.079-0.258,2.776l6.131,6.131   c0.696,0.097,1.451,0.116,2.776-0.258l-1.336,2.671l0.51,0.51c1.56,1.56,4.097,1.56,5.657,0s1.56-4.097,0-5.657l-0.028-0.028   c0.876-0.652,1.807-1.441,2.79-2.424C28.464,14.85,28.862,9.398,26.75,5.25z M6.187,13.847c-0.346-0.741-0.214-1.652,0.397-2.263   c0.78-0.78,2.049-0.78,2.828,0l0.31,0.31c-0.051,0.087-0.108,0.177-0.156,0.262L6.187,13.847z M20.416,22.588   c0.78,0.78,0.78,2.048,0,2.828c-0.611,0.611-1.522,0.743-2.263,0.397l1.691-3.38c0.085-0.048,0.175-0.105,0.262-0.156   L20.416,22.588z M15.115,21.971l-5.09-5.09c0.043-0.91,0.526-3.917,4.668-8.06c4.3-4.3,9.287-2.611,10.559-2.074   c0.538,1.276,2.225,6.261-2.074,10.559C19.06,21.425,16.043,21.923,15.115,21.971z"/>
	<path fill="#231F20" d="M16.643,12.357c0,1.654,1.346,3,3,3c1.654,0,3-1.346,3-3c0-1.654-1.346-3-3-3   C17.989,9.357,16.643,10.703,16.643,12.357z M20.643,12.357c0,0.551-0.448,1-1,1c-0.552,0-1-0.449-1-1c0-0.551,0.448-1,1-1   S20.643,11.806,20.643,12.357z"/>
	<path fill="#231F20" d="M4.879,22.878c-1.007,1.007-1.02,3.522-1,4.27l0.027,0.946l1.164,0.029c1.391,0,3.223-0.174,4.051-1.001   c1.175-1.176,1.17-3.072,0-4.243C7.988,21.745,6.012,21.746,4.879,22.878z M7.708,25.706c-0.152,0.139-0.787,0.323-1.805,0.391   c0.062-0.849,0.215-1.61,0.39-1.803c0.39-0.389,1.021-0.392,1.414,0C8.099,24.683,8.097,25.319,7.708,25.706z"/>
</g>
<metadata><work rdf:about=""><format>image/svg+xml</format><type rdf:resource="http://purl.org/dc/dcmitype/StillImage"/><license rdf:resource="http://creativecommons.org/licenses/by/4.0/"/><attributionname>Shannon E Thomas</attributionname><attributionurl>http://www.toicon.com/icons/lines-and-angles_launch</attributionurl></work></metadata></svg>
