<?xml version="1.0" encoding="UTF-8"?>
<!-- Generator: Adobe Illustrator 18.0.0, SVG Export Plug-In . SVG Version: 6.00 Build 0)  -->
<!DOCTYPE svg PUBLIC "-//W3C//DTD SVG 1.1//EN" "http://www.w3.org/Graphics/SVG/1.1/DTD/svg11.dtd">
<svg xmlns="http://www.w3.org/2000/svg" xmlns:xlink="http://www.w3.org/1999/xlink" xmlns:dc="http://purl.org/dc/elements/1.1/" xmlns:cc="http://creativecommons.org/ns#" xmlns:rdf="http://www.w3.org/1999/02/22-rdf-syntax-ns#" version="1.1" id="DESIGNS" x="0px" y="0px" width="32px" height="32px" viewBox="0 0 32 32" enable-background="new 0 0 32 32" xml:space="preserve">
<title property="dc:title">to unlock</title><desc property="dc:description">An icon for "unlock" from the Lines and Angles series on to [icon]. Downloaded from http://www.toicon.com/icons/lines-and-angles_unlock by 90.230.228.223 on 2015-04-16. Licensed CC-BY, see http://toicon.com/license/ for details.</desc><path fill="#999999" d="M14,15v-5c0-0.334,0.096-2,2-2c1.827,0,1.993,1.536,2,2v3h5v-3c0-3.859-3.14-7-7-7s-7,3.141-7,7v5H6v14h20  V15H14z M11,10c0-2.757,2.243-5,5-5s5,2.243,5,5v1h-1v-1c0-1.607-1.065-4-4-4s-4,2.393-4,4v5h-1V10z M24,27H8V17h16V27z M15,23h-1  v-4h4v4h-1v2h-2V23z"/>
<metadata><work rdf:about=""><format>image/svg+xml</format><type rdf:resource="http://purl.org/dc/dcmitype/StillImage"/><license rdf:resource="http://creativecommons.org/licenses/by/4.0/"/><attributionname>Shannon E Thomas</attributionname><attributionurl>http://www.toicon.com/icons/lines-and-angles_unlock</attributionurl></work></metadata></svg>
